<svg id="图层_1" data-name="图层 1" xmlns="http://www.w3.org/2000/svg" viewBox="0 0 1800 1720"><defs><style>.cls-1{fill:#f03800;}.cls-2{fill:#ff6c6c;}.cls-3{fill:#cd0000;}.cls-4{fill:#4f575c;}.cls-5{fill:#474f54;}.cls-6{fill:#cbd7f1;}.cls-7{fill:#b1bbe8;}</style></defs><rect class="cls-1" x="900" y="500" width="900" height="300"/><rect class="cls-2" y="500" width="900" height="300"/><polygon class="cls-1" points="900 800 80 800 160 1720 900 1720 900 800"/><polygon class="cls-3" points="900 800 1720 800 1640 1720 900 1720 900 800"/><polygon class="cls-3" points="900 500 900 290 1640 290 1720 500 900 500"/><polygon class="cls-1" points="900 500 900 290 160 290 80 500 900 500"/><rect class="cls-4" x="285" y="800" width="330" height="240"/><rect class="cls-5" x="1185" y="800" width="330" height="240"/><path class="cls-4" d="M620,0A160,160,0,0,0,460,160V290H580V210a90,90,0,0,1,90-90H900V0Z"/><path class="cls-5" d="M1180,0a160,160,0,0,1,160,160V290H1220V210a90,90,0,0,0-90-90H900V0Z"/><polygon class="cls-6" points="355 1040 395 1720 545 1720 505 1040 355 1040"/><polygon class="cls-7" points="1445 1040 1405 1720 1255 1720 1295 1040 1445 1040"/><polygon class="cls-6" points="380 500 400 290 540 290 520 500 380 500"/><polygon class="cls-7" points="1420 500 1400 290 1260 290 1280 500 1420 500"/></svg>